<?xml version="1.0" standalone="no"?><!DOCTYPE svg PUBLIC "-//W3C//DTD SVG 1.1//EN" "http://www.w3.org/Graphics/SVG/1.1/DTD/svg11.dtd"><svg t="1775926169973" class="icon" viewBox="0 0 1024 1024" version="1.1" xmlns="http://www.w3.org/2000/svg" p-id="18925" xmlns:xlink="http://www.w3.org/1999/xlink" width="200" height="200"><path d="M760.533333 285.866667c0-43.434667-0.085333-71.744-2.901333-92.629334-2.645333-19.669333-6.976-26.282667-10.858667-30.144-3.861333-3.882667-10.474667-8.213333-30.144-10.88-15.658667-2.090667-35.498667-2.666667-62.762666-2.816L624 149.333333h-224c-43.434667 0-71.744 0.085333-92.629333 2.901334-19.669333 2.645333-26.282667 6.976-30.144 10.858666-3.882667 3.861333-8.213333 10.453333-10.88 30.144-2.773333 20.906667-2.88 49.194667-2.88 92.629334v448c0 43.456 0.085333 71.744 2.901333 92.629333 2.645333 19.669333 6.976 26.282667 10.858667 30.144 3.861333 3.882667 10.474667 8.213333 30.144 10.88 20.906667 2.773333 49.194667 2.88 92.629333 2.88h224c43.456 0 71.744-0.085333 92.629333-2.901333 19.669333-2.645333 26.282667-6.976 30.144-10.858667 3.882667-3.861333 8.213333-10.474667 10.88-30.144 2.773333-20.906667 2.88-49.173333 2.88-92.629333v-448z m85.333334 448c0 41.045333 0.085333 76.117333-3.669334 104-3.925333 29.141333-12.693333 56.746667-35.072 79.146666-22.357333 22.357333-49.984 31.146667-79.125333 35.050667-27.882667 3.754667-62.954667 3.669333-104 3.669333h-224c-41.024 0-76.096 0.085333-103.978667-3.669333-29.141333-3.925333-56.746667-12.693333-79.146666-35.072-22.357333-22.357333-31.146667-49.984-35.072-79.125333-3.754667-27.882667-3.669333-62.954667-3.669334-104v-448c0-41.024-0.085333-76.096 3.669334-104 3.925333-29.12 12.714667-56.746667 35.072-79.125334 22.4-22.357333 50.005333-31.146667 79.146666-35.072C323.904 63.914667 358.954667 64 400 64h224l29.653333 0.042667c28.458667 0.149333 53.44 0.810667 74.368 3.626666 29.12 3.904 56.746667 12.714667 79.125334 35.072 22.357333 22.378667 31.146667 50.005333 35.050666 79.146667 3.754667 27.882667 3.669333 62.954667 3.669334 103.978667v448z" fill="#8C857B" p-id="18926"></path><path d="M917.333333 689.066667V375.466667c0-32.896-0.085333-53.248-2.069333-68.053334-1.834667-13.568-4.544-15.893333-5.12-16.490666-0.597333-0.597333-2.965333-3.285333-16.490667-5.12-14.784-1.984-35.178667-2.069333-68.053333-2.069334h-22.4a42.666667 42.666667 0 1 1 0-85.333333h22.4c30.464 0 57.6-0.106667 79.402667 2.837333 23.04 3.093333 46.4 10.24 65.493333 29.354667 19.072 19.072 26.24 42.432 29.333333 65.450667 2.922667 21.802667 2.837333 48.938667 2.837334 79.424v313.6c0 30.464 0.085333 57.6-2.837334 79.424-3.093333 23.018667-10.24 46.378667-29.333333 65.472s-42.453333 26.24-65.493333 29.333333c-21.802667 2.922667-48.938667 2.837333-79.402667 2.837333h-22.4a42.666667 42.666667 0 1 1 0-85.333333h22.4c32.874667 0 53.269333-0.106667 68.053333-2.090667 13.546667-1.813333 15.893333-4.501333 16.490667-5.12 0.576-0.576 3.285333-2.922667 5.12-16.490666 1.984-14.784 2.048-35.157333 2.048-68.053334zM21.333333 689.066667V375.466667c0-30.485333-0.106667-57.621333 2.837334-79.424 3.093333-23.04 10.261333-46.378667 29.354666-65.450667 19.093333-19.093333 42.432-26.261333 65.450667-29.354667C140.8 198.293333 167.936 198.4 198.4 198.4h22.4a42.666667 42.666667 0 0 1 0 85.333333H198.4c-32.874667 0-53.248 0.085333-68.053333 2.090667-13.568 1.813333-15.893333 4.501333-16.490667 5.098667-0.597333 0.576-3.285333 2.922667-5.12 16.490666C106.773333 322.218667 106.666667 342.570667 106.666667 375.466667v313.6c0 32.874667 0.085333 53.248 2.090666 68.053333 1.813333 13.546667 4.501333 15.893333 5.098667 16.490667 0.597333 0.597333 2.922667 3.285333 16.490667 5.098666 14.805333 1.984 35.178667 2.090667 68.053333 2.090667h22.4a42.666667 42.666667 0 0 1 0 85.333333H198.4c-30.464 0-57.6 0.085333-79.424-2.837333-23.04-3.093333-46.357333-10.24-65.450667-29.333333s-26.261333-42.453333-29.354666-65.493334C21.226667 746.709333 21.333333 719.552 21.333333 689.066667zM624 646.4a42.666667 42.666667 0 0 1 0 85.333333h-224a42.666667 42.666667 0 1 1 0-85.333333h224z m0-179.2a42.666667 42.666667 0 1 1 0 85.333333h-224a42.666667 42.666667 0 0 1 0-85.333333h224z m0-179.2a42.666667 42.666667 0 1 1 0 85.333333h-224a42.666667 42.666667 0 1 1 0-85.333333h224z" fill="#8C857B" p-id="18927"></path></svg>